<svg xmlns="http://www.w3.org/2000/svg" width="800.04" height="800.04" viewBox="0 0 1200 1200">
  <defs>
    <style>
      .cls-1 {
        fill: #010101;
        fill-rule: evenodd;
      }
    </style>
  </defs>
  <path id="Polygon_9" data-name="Polygon 9" class="cls-1" d="M417.84,1017.66l-230.581-2.78,117.7-198.18Z"/>
  <path id="Polygon_10" data-name="Polygon 10" class="cls-1" d="M254.354,879.183l-44.017-89.492,99.557,6.648Z"/>
  <path id="Polygon_11" data-name="Polygon 11" class="cls-1" d="M400.845,658.661l-178.966,4.562,85.53-157.179Z"/>
  <path id="Polygon_12" data-name="Polygon 12" class="cls-1" d="M265.3,756.572l-49.023-84.228,97.5-.316Z"/>
  <path id="Polygon_13" data-name="Polygon 13" class="cls-1" d="M300.573,365.419l68.173,121.73-139.569-1.86Z"/>
  <path id="Polygon_14" data-name="Polygon 14" class="cls-1" d="M277.786,225.4L375.858,306.3,256.725,350.732Z"/>
  <path id="Polygon_15" data-name="Polygon 15" class="cls-1" d="M385.486,741.609l-86.266.616,42.6-74.973Z"/>
  <path id="Polygon_16" data-name="Polygon 16" class="cls-1" d="M355.092,817.5l-46.876-41.647L367.743,756.1Z"/>
  <path id="Polygon_17" data-name="Polygon 17" class="cls-1" d="M686.268,621.839l-62.8-2.873,33.888-52.917Z"/>
  <path id="Polygon_18" data-name="Polygon 18" class="cls-1" d="M885.585,548.084l-15.146-60.82,60.275,17.3Z"/>
  <path id="Polygon_19" data-name="Polygon 19" class="cls-1" d="M575.1,248.891L521.19,212.863l58.174-28.645Z"/>
  <path id="Polygon_20" data-name="Polygon 20" class="cls-1" d="M696.327,199.135l-45.983-2.658,25.295-38.471Z"/>
  <path id="Polygon_21" data-name="Polygon 21" class="cls-1" d="M895.311,294.176L835.2,313.731l13.111-61.806Z"/>
  <path id="Polygon_22" data-name="Polygon 22" class="cls-1" d="M907.62,245.322l-62.074,1.795,29.482-54.623Z"/>
  <path id="Polygon_23" data-name="Polygon 23" class="cls-1" d="M924.536,249.444l-12.678,42.827-30.772-32.386Z"/>
  <path id="Polygon_24" data-name="Polygon 24" class="cls-1" d="M818.12,437.443l-16.22-27.5,31.938-.289Z"/>
  <path id="Polygon_25" data-name="Polygon 25" class="cls-1" d="M864.654,469.576l-6.636-29.489,28.871,9Z"/>
  <path id="Polygon_26" data-name="Polygon 26" class="cls-1" d="M354.36,351.778l-37.888,25.6-3.243-45.595Z"/>
  <path id="Polygon_27" data-name="Polygon 27" class="cls-1" d="M348.686,540.994L326.823,494.72l51.028,4.214Z"/>
  <path id="Polygon_28" data-name="Polygon 28" class="cls-1" d="M285,516.457l-48.083,74.907L196.05,512.293Z"/>
  <path id="Polygon_29" data-name="Polygon 29" class="cls-1" d="M380.464,825.08l-29.285,46.3-25.478-48.5Z"/>
  <path id="Polygon_30" data-name="Polygon 30" class="cls-1" d="M289.308,769.182l-25.18-2.824,15.037-20.381Z"/>
  <path id="Polygon_31" data-name="Polygon 31" class="cls-1" d="M736.532,604.839l-29.761,19.278-1.824-35.4Z"/>
  <path id="Polygon_32" data-name="Polygon 32" class="cls-1" d="M811.65,634.8l-40.712,9.767,11.892-40.121Z"/>
  <path id="Polygon_33" data-name="Polygon 33" class="cls-1" d="M843.246,614.479l-8.724-20.709,22.307,2.8Z"/>
  <path id="Polygon_34" data-name="Polygon 34" class="cls-1" d="M855.4,453.241l-19.02,1.669,8.063-17.3Z"/>
  <path id="Polygon_35" data-name="Polygon 35" class="cls-1" d="M613.344,723.659l-21.805-16.994,25.628-10.376Z"/>
  <path id="Polygon_36" data-name="Polygon 36" class="cls-1" d="M656.475,783.18l-26.048-13.4,24.633-15.846Z"/>
  <path id="Polygon_37" data-name="Polygon 37" class="cls-1" d="M694.02,827.071l-21.1.881,9.787-18.7Z"/>
  <path id="Polygon_38" data-name="Polygon 38" class="cls-1" d="M612.576,748.008l-0.159-15.834,13.8,7.779Z"/>
  <path id="Polygon_39" data-name="Polygon 39" class="cls-1" d="M703.534,856.207l-6.844,15.636L686.563,858.1Z"/>
  <path id="Polygon_1" data-name="Polygon 1" class="cls-1" d="M240.871,405.56l-148.883-83.4L238.7,235Z"/>
  <path id="Polygon_40" data-name="Polygon 40" class="cls-1" d="M613.277,1015.6l-142.569.48,70.87-123.7Z"/>
  <path id="Polygon_41" data-name="Polygon 41" class="cls-1" d="M699.744,994.233l-46.39-67.973,82.066-6.185Z"/>
  <path id="Polygon_42" data-name="Polygon 42" class="cls-1" d="M653.547,1018.44L605.921,986.5,657.4,961.23Z"/>
  <path id="Polygon_43" data-name="Polygon 43" class="cls-1" d="M790.241,1018.95l-76.35-.33,38.46-65.951Z"/>
  <path id="Polygon_44" data-name="Polygon 44" class="cls-1" d="M880.072,984.468l-55.855,38.842L818.5,955.522Z"/>
  <path id="Polygon_45" data-name="Polygon 45" class="cls-1" d="M827.887,933.405l-50.043,12.946,13.809-49.808Z"/>
  <path id="Polygon_46" data-name="Polygon 46" class="cls-1" d="M916.718,989.729L851.483,957.36l60.652-40.306Z"/>
  <path id="Polygon_47" data-name="Polygon 47" class="cls-1" d="M926.049,1034.83L878.123,1042l17.754-45.088Z"/>
  <path id="Polygon_48" data-name="Polygon 48" class="cls-1" d="M995.815,928.024l-10.617,74.4-59.129-46.39Z"/>
  <path id="Polygon_49" data-name="Polygon 49" class="cls-1" d="M884.362,902.471l-35.95,33.707-11.219-47.984Z"/>
  <path id="Polygon_50" data-name="Polygon 50" class="cls-1" d="M969.526,931.2l-46.8,17.025,8.655-49.039Z"/>
  <path id="Polygon_51" data-name="Polygon 51" class="cls-1" d="M971.859,998.622L934.6,1011.99l7.052-38.948Z"/>
  <path id="Polygon_52" data-name="Polygon 52" class="cls-1" d="M608.857,939.074l-16.734-37.928,41.216,4.473Z"/>
  <path id="Polygon_53" data-name="Polygon 53" class="cls-1" d="M639.618,963.973l-21.3-13.38,22.24-11.757Z"/>
  <path id="Polygon_54" data-name="Polygon 54" class="cls-1" d="M244.406,767.437l-23.746-1.593,13.253-19.766Z"/>
  <path id="Polygon_55" data-name="Polygon 55" class="cls-1" d="M226.756,500.645l-37.44-15.863,32.459-24.489Z"/>
  <path id="Polygon_56" data-name="Polygon 56" class="cls-1" d="M304.277,403.661l-36.965,19.951v-39.9Z"/>
  <path id="Polygon_57" data-name="Polygon 57" class="cls-1" d="M395.691,398.65l-50.635-2.693,27.651-42.5Z"/>
  <path id="Polygon_58" data-name="Polygon 58" class="cls-1" d="M751.981,290.015l-39.538-2.385,21.835-33.045Z"/>
  <path id="Polygon_59" data-name="Polygon 59" class="cls-1" d="M644.551,329.823l-31.8-18.374L644.563,293.1Z"/>
  <path id="Polygon_60" data-name="Polygon 60" class="cls-1" d="M597.246,374.832L564.9,356.778l31.811-18.985Z"/>
  <path id="Polygon_61" data-name="Polygon 61" class="cls-1" d="M507.619,401.947L501.075,351.9,547.7,371.255Z"/>
  <path id="Polygon_62" data-name="Polygon 62" class="cls-1" d="M458.226,359.649l-2.616-32.54,29.492,14Z"/>
  <path id="Polygon_63" data-name="Polygon 63" class="cls-1" d="M484.223,411.569l-40.685-22.837,40.121-23.813Z"/>
  <path id="Polygon_64" data-name="Polygon 64" class="cls-1" d="M759.036,927.941l-28.581-40.686,49.528-4.408Z"/>
  <path id="Polygon_65" data-name="Polygon 65" class="cls-1" d="M798.777,986.561l-26.866-18L800.932,954.3Z"/>
  <path id="Polygon_66" data-name="Polygon 66" class="cls-1" d="M923.485,908.253l-26.317-3.383,16.088-21.1Z"/>
  <path id="Polygon_67" data-name="Polygon 67" class="cls-1" d="M966.216,1025.21l-22.613-.93,12.111-19.12Z"/>
  <path id="Polygon_68" data-name="Polygon 68" class="cls-1" d="M997.63,915.536l-22.874,13.205v-26.41Z"/>
  <path id="Polygon_69" data-name="Polygon 69" class="cls-1" d="M726.028,904.615l-24.564,3.627,9.141-23.085Z"/>
  <path id="Polygon_70" data-name="Polygon 70" class="cls-1" d="M757.077,637.981l-26.113-22.3,32.372-11.462Z"/>
  <path id="Polygon_71" data-name="Polygon 71" class="cls-1" d="M687.7,1003.54l-26.96,12.7,2.483-29.7Z"/>
  <path id="Polygon_72" data-name="Polygon 72" class="cls-1" d="M981.1,1015.87l44.814-122.98,84.1,100.3Z"/>
  <path id="Polygon_2" data-name="Polygon 2" class="cls-1" d="M695.671,898.794l-225.905-.343L583.016,703.1Z"/>
  <path id="Polygon_3" data-name="Polygon 3" class="cls-1" d="M718.74,848.482L605.049,644.212,838.9,647.946Z"/>
  <path id="Polygon_4" data-name="Polygon 4" class="cls-1" d="M894.038,588.975L669.553,586.26l114.6-192.938Z"/>
  <path id="Polygon_5" data-name="Polygon 5" class="cls-1" d="M959.76,284.069L943.1,479.714,781.9,367.474Z"/>
  <path id="Polygon_6" data-name="Polygon 6" class="cls-1" d="M870.7,170.891L796.254,321.41l-93.206-139.7Z"/>
  <path id="Polygon_7" data-name="Polygon 7" class="cls-1" d="M721.793,251.082L594.308,311.463l11.42-140.531Z"/>
  <path id="Polygon_8" data-name="Polygon 8" class="cls-1" d="M544.588,235.121l19.749,139.884L433.248,322.156Z"/>
  <path id="Polygon_73" data-name="Polygon 73" class="cls-1" d="M532.409,487.629l-75.943-20.371,55.613-55.583Z"/>
  <path id="Polygon_74" data-name="Polygon 74" class="cls-1" d="M462.2,452.336l-31.927-25.87,38.367-14.715Z"/>
  <path id="Polygon_75" data-name="Polygon 75" class="cls-1" d="M284.4,204l-23.6,43.443-25.824-42.159Z"/>
  <path id="Polygon_76" data-name="Polygon 76" class="cls-1" d="M356.764,182.27l-5.392,82.165-68.46-45.752Z"/>
  <path id="Polygon_77" data-name="Polygon 77" class="cls-1" d="M243.367,232.068l-55.2,20.536,9.814-58.072Z"/>
  <path id="Polygon_78" data-name="Polygon 78" class="cls-1" d="M331.983,165.8L291.121,202.1l-11-53.534Z"/>
  <path id="Polygon_79" data-name="Polygon 79" class="cls-1" d="M252.166,177.466l-29.6,19.578-2.157-35.419Z"/>
  <path id="Polygon_80" data-name="Polygon 80" class="cls-1" d="M188.123,225.816l-85.35,51.348-1.794-99.589Z"/>
</svg>
